<?xml version="1.0" encoding="UTF-8"?>
<svg id="Layer_1" data-name="Layer 1" xmlns="http://www.w3.org/2000/svg" xmlns:xlink="http://www.w3.org/1999/xlink" viewBox="0 0 100 100">
  <defs>
    <style>
      .cls-1 {
        fill: url(#linear-gradient);
        stroke-width: 0px;
      }
    </style>
    <linearGradient id="linear-gradient" x1="7.66" y1="50" x2="92.34" y2="50" gradientUnits="userSpaceOnUse">
      <stop offset="0" stop-color="#6900ff"/>
      <stop offset=".01" stop-color="#6700ff"/>
      <stop offset=".32" stop-color="#3a1bff"/>
      <stop offset=".6" stop-color="#1a2eff"/>
      <stop offset=".84" stop-color="#0739ff"/>
      <stop offset="1" stop-color="#003eff"/>
    </linearGradient>
  </defs>
  <path class="cls-1" d="m91.98,59.4c-.39-.82-1.07-1.48-1.91-1.84-.84-.36-1.78-.4-2.65-.11-6.08,2.06-12.57,2.27-18.77.6-6.2-1.67-11.71-5.1-15.94-9.93-4.23-4.83-6.9-10.75-7.73-17.12-.83-6.37.23-12.77,3.08-18.53.4-.82.49-1.76.25-2.64-.25-.88-.8-1.64-1.57-2.14-.77-.5-1.69-.69-2.6-.55-10.77,1.68-20.42,7.32-27.17,15.87-6.76,8.55-10.01,19.24-9.16,30.11.85,10.86,5.73,20.92,13.73,28.32,7.99,7.39,18.38,11.45,29.27,11.45h.05c9.22-.04,18.37-3.1,25.76-8.61,7.39-5.51,12.93-13.41,15.59-22.23l.02-.07c.23-.86.15-1.77-.23-2.58Zm-9.51,6.84c-2.97,5.63-7.38,10.37-12.79,13.75-5.66,3.53-12.18,5.4-18.84,5.43-8.44-.02-16.63-3.05-23.06-8.53-6.43-5.47-10.71-13.08-12.08-21.41-1.36-8.33.29-16.91,4.64-24.14,4.2-6.99,10.69-12.34,18.34-15.13-.95,3.43-1.43,6.97-1.42,10.53.01,10.64,4.16,20.65,11.69,28.18,7.53,7.53,17.54,11.68,28.18,11.69,1.78,0,3.58-.12,5.34-.37Z"/>
</svg>