<?xml version="1.0" encoding="UTF-8"?>
<svg id="Layer_1" data-name="Layer 1" xmlns="http://www.w3.org/2000/svg" xmlns:xlink="http://www.w3.org/1999/xlink" viewBox="0 0 100 100">
  <defs>
    <style>
      .cls-1 {
        fill: url(#linear-gradient);
        stroke-width: 0px;
      }
    </style>
    <linearGradient id="linear-gradient" x1=".05" y1="12.78" x2="101.46" y2="105.94" gradientUnits="userSpaceOnUse">
      <stop offset="0" stop-color="#69c3ff"/>
      <stop offset=".01" stop-color="#67c2ff"/>
      <stop offset=".32" stop-color="#3aacff"/>
      <stop offset=".6" stop-color="#1a9cff"/>
      <stop offset=".84" stop-color="#0792ff"/>
      <stop offset="1" stop-color="#008fff"/>
    </linearGradient>
  </defs>
  <path class="cls-1" d="m85.36,92.47H14.64c-3.9,0-7.11-3.21-7.11-7.11V14.65c0-3.9,3.21-7.11,7.11-7.11h53.04c1.04-.09,1.99.26,2.69,1.04l20.89,20.89c.78.78,1.13,1.82,1.04,2.86h.17v53.13c0,3.81-3.21,7.02-7.11,7.02Zm-53.04-7.11h35.36v-24.7h-35.36v24.7ZM60.66,14.65h-21.23v21.23h21.23V14.65Zm24.7,19.33l-17.68-17.68v19.59c0,3.9-3.21,7.11-7.11,7.11h-21.15c-3.9,0-7.11-3.21-7.11-7.11V14.65H14.64v70.81h10.57v-24.79c0-3.9,3.21-7.11,7.11-7.11h35.36c3.9,0,7.11,3.21,7.11,7.11v24.79h10.66v-51.48h-.09Z"/>
</svg>