<?xml version="1.0" encoding="UTF-8"?>
<svg id="Layer_1" data-name="Layer 1" xmlns="http://www.w3.org/2000/svg" xmlns:xlink="http://www.w3.org/1999/xlink" viewBox="0 0 100 100">
  <defs>
    <style>
      .cls-1 {
        fill: url(#linear-gradient);
        stroke-width: 0px;
      }
    </style>
    <linearGradient id="linear-gradient" x1="4" y1="50" x2="96" y2="50" gradientUnits="userSpaceOnUse">
      <stop offset="0" stop-color="#f37252"/>
      <stop offset=".29" stop-color="#f79836"/>
      <stop offset=".58" stop-color="#fbb81f"/>
      <stop offset=".83" stop-color="#fecb11"/>
      <stop offset="1" stop-color="#ffd30c"/>
    </linearGradient>
  </defs>
  <path class="cls-1" d="m50,23.42c-14.66,0-26.58,11.92-26.58,26.58s11.92,26.58,26.58,26.58,26.58-11.92,26.58-26.58-11.92-26.58-26.58-26.58Zm18.51,26.58c0,10.21-8.3,18.51-18.51,18.51s-18.51-8.3-18.51-18.51,8.3-18.51,18.51-18.51,18.51,8.3,18.51,18.51ZM45.97,13.91v-5.88c0-2.22,1.81-4.03,4.03-4.03s4.03,1.81,4.03,4.03v5.88c0,2.22-1.81,4.03-4.03,4.03s-4.03-1.81-4.03-4.03Zm8.07,72.17v5.88c0,2.22-1.81,4.03-4.03,4.03s-4.03-1.81-4.03-4.03v-5.88c0-2.22,1.81-4.03,4.03-4.03s4.03,1.81,4.03,4.03Zm41.97-36.09c0,2.22-1.81,4.03-4.03,4.03h-5.88c-2.22,0-4.03-1.81-4.03-4.03s1.81-4.03,4.03-4.03h5.88c2.22,0,4.03,1.81,4.03,4.03Zm-82.09,4.03h-5.88c-2.22,0-4.03-1.81-4.03-4.03s1.81-4.03,4.03-4.03h5.88c2.22,0,4.03,1.81,4.03,4.03,0,2.22-1.81,4.03-4.03,4.03Zm58.75-26.7c-1.57-1.57-1.57-4.13,0-5.7l4.16-4.16c.76-.76,1.78-1.18,2.85-1.18s2.09.42,2.85,1.18c1.57,1.57,1.57,4.13,0,5.7l-4.16,4.16c-.76.76-1.77,1.18-2.85,1.18s-2.09-.42-2.85-1.18Zm-45.33,45.33c1.57,1.57,1.57,4.13,0,5.7l-4.16,4.16c-.76.76-1.78,1.18-2.85,1.18s-2.09-.42-2.85-1.18c-.76-.76-1.18-1.78-1.18-2.85s.42-2.09,1.18-2.85l4.16-4.16c1.57-1.57,4.13-1.57,5.7,0Zm55.19,4.16c.76.76,1.18,1.77,1.18,2.85s-.42,2.09-1.18,2.85c-.76.76-1.77,1.18-2.85,1.18s-2.09-.42-2.85-1.18l-4.16-4.16c-.76-.76-1.18-1.77-1.18-2.85s.42-2.09,1.18-2.85,1.77-1.18,2.85-1.18h0c1.08,0,2.09.42,2.85,1.18l4.16,4.16ZM17.47,23.18c-.76-.76-1.18-1.77-1.18-2.85,0-1.08.42-2.09,1.18-2.85.76-.76,1.77-1.18,2.85-1.18h0c1.08,0,2.09.42,2.85,1.18l4.16,4.16c.76.76,1.18,1.77,1.18,2.85s-.42,2.09-1.18,2.85c-.76.76-1.77,1.18-2.85,1.18s-2.09-.42-2.85-1.18l-4.16-4.16Z"/>
</svg>